<?xml version="1.0" encoding="UTF-8"?> <svg xmlns="http://www.w3.org/2000/svg" width="44" height="56" viewBox="0 0 44 56" fill="none"><path d="M40 1C41.6569 1 43 2.34315 43 4L43 52C43 53.6569 41.6569 55 40 55L3.99999 55C2.34314 55 0.999998 53.6569 0.999998 52L1 4C1 2.34314 2.34314 0.999998 4 0.999998L40 1Z" stroke="#5F27CD" stroke-width="2"></path><rect x="6" y="35" width="2" height="12" fill="#5F27CD"></rect><rect x="9" y="35" width="2" height="12" fill="#5F27CD"></rect><rect x="14" y="35" width="3" height="12" fill="#5F27CD"></rect><rect x="19" y="35" width="2" height="12" fill="#5F27CD"></rect><rect x="24" y="35" width="3" height="12" fill="#5F27CD"></rect><rect x="29" y="35" width="2" height="12" fill="#5F27CD"></rect><rect x="36" y="35" width="2" height="12" fill="#5F27CD"></rect><rect x="32" y="35" width="2" height="12" fill="#5F27CD"></rect><rect x="6" y="9" width="15" height="2" fill="#5F27CD"></rect><rect x="6" y="13" width="10" height="2" fill="#5F27CD"></rect></svg> 