<?xml version="1.0" encoding="UTF-8" standalone="no"?>
<!DOCTYPE svg PUBLIC "-//W3C//DTD SVG 1.1//EN" "http://www.w3.org/Graphics/SVG/1.1/DTD/svg11.dtd">
<svg width="42px" height="45px" version="1.1" xmlns="http://www.w3.org/2000/svg" xmlns:xlink="http://www.w3.org/1999/xlink" xml:space="preserve" xmlns:serif="http://www.serif.com/" style="fill-rule:evenodd;clip-rule:evenodd;stroke-miterlimit:10;">
    <g transform="matrix(1,0,0,1,-4,-3)">
        <path d="M29.29,18.5L7.5,18.5L7.5,9.5L27.51,9.5" style="fill:none;fill-rule:nonzero;stroke:rgb(95,39,205);stroke-width:1px;"/>
    </g>
    <g transform="matrix(1,0,0,1,-4,-3)">
        <path d="M40.5,20.29L40.5,47.5L4.5,47.5L4.5,6.5L29.29,6.5" style="fill:none;fill-rule:nonzero;stroke:rgb(95,39,205);stroke-width:1px;"/>
    </g>
    <g transform="matrix(1,0,0,1,-4,-3)">
        <path d="M37.5,31.5L31.5,31.5L31.5,44.5L37.5,44.5L37.5,31.5ZM13.5,38.5L7.5,38.5L7.5,44.5L13.5,44.5L13.5,38.5ZM21.5,38.5L15.5,38.5L15.5,44.5L21.5,44.5L21.5,38.5ZM29.5,38.5L23.5,38.5L23.5,44.5L29.5,44.5L29.5,38.5ZM13.5,30.5L7.5,30.5L7.5,36.5L13.5,36.5L13.5,30.5ZM21.5,30.5L15.5,30.5L15.5,36.5L21.5,36.5L21.5,30.5ZM29.5,30.5L23.5,30.5L23.5,36.5L29.5,36.5L29.5,30.5ZM13.5,22.5L7.5,22.5L7.5,28.5L13.5,28.5L13.5,22.5ZM21.5,22.5L15.5,22.5L15.5,28.5L21.5,28.5L21.5,22.5ZM29.5,22.5L23.5,22.5L23.5,28.5L29.5,28.5L29.5,22.5Z" style="fill:none;fill-rule:nonzero;stroke:rgb(95,39,205);stroke-width:1px;"/>
    </g>
    <g transform="matrix(1,0,0,1,-4,-3)">
        <path d="M36,21.5C40.937,21.5 45,17.437 45,12.5C45,7.563 40.937,3.5 36,3.5C31.063,3.5 27,7.563 27,12.5C27,17.437 31.063,21.5 36,21.5ZM29,12.5C29,8.66 32.16,5.5 36,5.5M43,12.5C43,16.34 39.84,19.5 36,19.5" style="fill:none;fill-rule:nonzero;stroke:rgb(95,39,205);stroke-width:1px;stroke-linecap:round;stroke-linejoin:round;stroke-miterlimit:4;"/>
    </g>
    <g transform="matrix(1,0,0,1,-4,-3)">
        <path d="M37.493,13.011C37.758,13.246 37.946,13.569 37.95,14.103C37.884,14.957 37.183,15.634 36.328,15.671C36.683,15.611 36.998,15.485 37.25,15.289C37.623,15 37.83,14.583 37.83,14.12C37.83,13.437 37.392,13.041 36.938,12.802C36.604,12.627 36.178,12.492 35.791,12.371C35.686,12.338 35.583,12.306 35.486,12.274C34.989,12.111 34.573,11.94 34.279,11.69C34.015,11.466 33.834,11.166 33.83,10.667C33.887,9.913 34.443,9.285 35.185,9.137C34.527,9.335 34.044,9.904 33.955,10.585L33.95,10.617L33.95,10.65C33.95,11.325 34.414,11.697 34.855,11.913C35.163,12.063 35.557,12.185 35.923,12.297C36.052,12.337 36.177,12.375 36.293,12.414C36.785,12.575 37.2,12.752 37.493,13.011ZM34.403,15.229C34.655,15.466 34.973,15.606 35.333,15.669C34.594,15.633 33.964,15.109 33.793,14.39L33.942,14.39C34.012,14.709 34.158,14.998 34.403,15.229ZM37.136,9.584C37.031,9.479 36.913,9.387 36.785,9.312C37.233,9.521 37.568,9.915 37.704,10.39L37.596,10.39C37.518,10.085 37.359,9.807 37.136,9.584Z" style="fill:rgb(38,91,211);fill-rule:nonzero;stroke:rgb(95,39,205);stroke-width:1px;stroke-miterlimit:4;"/>
    </g>
</svg>
